<?xml version="1.0" encoding="UTF-8"?>
<!DOCTYPE svg PUBLIC "-//W3C//DTD SVG 1.1//EN" "http://www.w3.org/Graphics/SVG/1.1/DTD/svg11.dtd">
<svg xmlns="http://www.w3.org/2000/svg" version="1.1" width="60px" height="57px" style="shape-rendering:geometricPrecision; text-rendering:geometricPrecision; image-rendering:optimizeQuality; fill-rule:evenodd; clip-rule:evenodd" xmlns:xlink="http://www.w3.org/1999/xlink">
<g><path style="opacity:1" fill="#3e9ceb" d="M 27.5,-0.5 C 29.5,-0.5 31.5,-0.5 33.5,-0.5C 33.1348,2.07866 33.1348,4.41199 33.5,6.5C 32.5398,7.51518 31.3731,7.51518 30,6.5C 28.699,6.63874 27.8656,7.30541 27.5,8.5C 24.2677,6.86371 22.101,7.86371 21,11.5C 17.5457,10.3069 15.0457,11.4735 13.5,15C 12.255,15.7914 10.9217,16.2914 9.5,16.5C 12.9762,8.02014 18.9762,2.35348 27.5,-0.5 Z"/></g>
<g><path style="opacity:1" fill="#3f9df3" d="M 42.5,16.5 C 42.2228,13.3171 40.5561,11.3171 37.5,10.5C 35.7918,8.48756 33.7918,8.15423 31.5,9.5C 29.901,9.76781 28.5676,9.43448 27.5,8.5C 27.8656,7.30541 28.699,6.63874 30,6.5C 31.3731,7.51518 32.5398,7.51518 33.5,6.5C 39.4376,4.76589 44.9376,5.76589 50,9.5C 50.6877,10.3317 50.521,10.9984 49.5,11.5C 46.9613,12.9308 44.6279,14.5975 42.5,16.5 Z"/></g>
<g><path style="opacity:1" fill="#2966ca" d="M 27.5,8.5 C 28.5676,9.43448 29.901,9.76781 31.5,9.5C 31.1436,11.1898 30.1436,12.1898 28.5,12.5C 27.5714,11.0639 26.4048,9.73052 25,8.5C 23.5952,9.73052 22.4286,11.0639 21.5,12.5C 20.207,13.842 19.3736,15.5087 19,17.5C 18.6667,17.1667 18.3333,16.8333 18,16.5C 16.4868,19.0239 15.8201,21.6906 16,24.5C 16.704,22.273 17.8706,21.9397 19.5,23.5C 18.3773,25.9787 18.3773,28.312 19.5,30.5C 19.366,32.2915 19.6993,33.9582 20.5,35.5C 20.5858,36.4959 20.2524,37.3292 19.5,38C 18.2341,38.3095 17.0674,38.8095 16,39.5C 13.6667,36.8333 11.3333,34.1667 9,31.5C 9,32.8333 9,34.1667 9,35.5C 7.1242,33.5777 5.6242,31.411 4.5,29C 4.90536,28.0546 5.57203,27.3879 6.5,27C 4.00866,26.3741 4.00866,25.5407 6.5,24.5C 5.16667,23.5 3.83333,22.5 2.5,21.5C 1.89333,21.6236 1.55999,21.9569 1.5,22.5C 0.833333,22.1667 0.166667,21.8333 -0.5,21.5C -0.5,20.8333 -0.5,20.1667 -0.5,19.5C 2.45603,18.8629 5.45603,18.3629 8.5,18C 9.05596,17.6174 9.38929,17.1174 9.5,16.5C 10.9217,16.2914 12.255,15.7914 13.5,15C 15.0457,11.4735 17.5457,10.3069 21,11.5C 22.101,7.86371 24.2677,6.86371 27.5,8.5 Z"/></g>
<g><path style="opacity:1" fill="#f7dab5" d="M 28.5,12.5 C 28.5674,13.9587 28.2341,15.2921 27.5,16.5C 25.5,16.5 23.5,16.5 21.5,16.5C 21.5,15.1667 21.5,13.8333 21.5,12.5C 22.4286,11.0639 23.5952,9.73052 25,8.5C 26.4048,9.73052 27.5714,11.0639 28.5,12.5 Z"/></g>
<g><path style="opacity:1" fill="#cecccc" d="M 37.5,10.5 C 37.631,11.2389 37.4643,11.9056 37,12.5C 35.6626,11.2351 34.1626,10.7351 32.5,11C 35.3323,12.9076 34.999,13.741 31.5,13.5C 31.2148,15.288 31.5481,16.9547 32.5,18.5C 34.1965,19.3636 35.3632,20.6969 36,22.5C 36.7175,21.5494 37.5509,21.3828 38.5,22C 38.3349,23.1169 38.0016,24.2836 37.5,25.5C 39.3316,26.0568 40.6649,27.0568 41.5,28.5C 39.8053,27.9886 38.1386,27.3219 36.5,26.5C 33.4271,23.1011 30.4271,19.7677 27.5,16.5C 28.2341,15.2921 28.5674,13.9587 28.5,12.5C 30.1436,12.1898 31.1436,11.1898 31.5,9.5C 33.7918,8.15423 35.7918,8.48756 37.5,10.5 Z"/></g>
<g><path style="opacity:1" fill="#3576e3" d="M 21.5,12.5 C 21.5,13.8333 21.5,15.1667 21.5,16.5C 23.5,16.5 25.5,16.5 27.5,16.5C 30.4271,19.7677 33.4271,23.1011 36.5,26.5C 38.1386,27.3219 39.8053,27.9886 41.5,28.5C 42.8146,29.8946 42.4812,30.8946 40.5,31.5C 39.5,31.5 38.5,31.5 37.5,31.5C 36.8333,31.5 36.1667,31.5 35.5,31.5C 33.0532,31.615 31.0532,32.615 29.5,34.5C 29.8643,29.7526 28.1977,25.9193 24.5,23C 22.8034,22.6155 21.1368,22.7822 19.5,23.5C 17.8706,21.9397 16.704,22.273 16,24.5C 15.8201,21.6906 16.4868,19.0239 18,16.5C 18.3333,16.8333 18.6667,17.1667 19,17.5C 19.3736,15.5087 20.207,13.842 21.5,12.5 Z"/></g>
<g><path style="opacity:1" fill="#40a4f7" d="M 42.5,16.5 C 45.0232,17.3844 47.6898,18.2177 50.5,19C 52.4386,19.9078 53.4386,21.4078 53.5,23.5C 51.6203,23.2291 50.287,23.8958 49.5,25.5C 47.6203,25.2291 46.287,25.8958 45.5,27.5C 45.1667,27.5 44.8333,27.5 44.5,27.5C 43.3922,26.1773 43.3922,24.6773 44.5,23C 43.3802,21.2626 42.3802,19.4292 41.5,17.5C 41.6236,16.8933 41.9569,16.56 42.5,16.5 Z"/></g>
<g><path style="opacity:1" fill="#f2f0ec" d="M 37.5,10.5 C 40.5561,11.3171 42.2228,13.3171 42.5,16.5C 41.9569,16.56 41.6236,16.8933 41.5,17.5C 42.3802,19.4292 43.3802,21.2626 44.5,23C 43.3922,24.6773 43.3922,26.1773 44.5,27.5C 45.3029,28.4232 45.4696,29.4232 45,30.5C 44.1841,29.1772 43.0174,28.5106 41.5,28.5C 40.6649,27.0568 39.3316,26.0568 37.5,25.5C 38.0016,24.2836 38.3349,23.1169 38.5,22C 37.5509,21.3828 36.7175,21.5494 36,22.5C 35.3632,20.6969 34.1965,19.3636 32.5,18.5C 31.5481,16.9547 31.2148,15.288 31.5,13.5C 34.999,13.741 35.3323,12.9076 32.5,11C 34.1626,10.7351 35.6626,11.2351 37,12.5C 37.4643,11.9056 37.631,11.2389 37.5,10.5 Z"/></g>
<g><path style="opacity:1" fill="#e5e7e9" d="M 29.5,34.5 C 29.2624,36.4044 28.2624,37.7377 26.5,38.5C 24.8212,38.7148 23.8212,38.0481 23.5,36.5C 22.6493,34.1184 21.316,32.1184 19.5,30.5C 18.3773,28.312 18.3773,25.9787 19.5,23.5C 21.1368,22.7822 22.8034,22.6155 24.5,23C 28.1977,25.9193 29.8643,29.7526 29.5,34.5 Z"/></g>
<g><path style="opacity:1" fill="#b6b6b8" d="M 1.5,22.5 C 1.55999,21.9569 1.89333,21.6236 2.5,21.5C 3.83333,22.5 5.16667,23.5 6.5,24.5C 4.00866,25.5407 4.00866,26.3741 6.5,27C 5.57203,27.3879 4.90536,28.0546 4.5,29C 5.6242,31.411 7.1242,33.5777 9,35.5C 9,34.1667 9,32.8333 9,31.5C 11.3333,34.1667 13.6667,36.8333 16,39.5C 17.0674,38.8095 18.2341,38.3095 19.5,38C 20.2524,37.3292 20.5858,36.4959 20.5,35.5C 21.391,36.1098 22.391,36.4431 23.5,36.5C 23.8212,38.0481 24.8212,38.7148 26.5,38.5C 24.9724,39.3092 23.3057,39.9759 21.5,40.5C 19.0672,40.2729 17.4006,41.2729 16.5,43.5C 15.5,42.8333 14.5,42.1667 13.5,41.5C 8.90402,38.6057 4.23735,35.6057 -0.5,32.5C -0.5,31.5 -0.5,30.5 -0.5,29.5C 0.596413,27.8968 1.92975,26.3968 3.5,25C 2.93406,24.0053 2.26739,23.172 1.5,22.5 Z"/></g>
<g><path style="opacity:1" fill="#2d64d3" d="M 49.5,25.5 C 51.4333,27.5958 53.7666,29.0958 56.5,30C 55.6195,30.7083 54.9528,31.5416 54.5,32.5C 51.9455,31.612 49.2788,31.2786 46.5,31.5C 46.7678,29.901 46.4345,28.5676 45.5,27.5C 46.287,25.8958 47.6203,25.2291 49.5,25.5 Z"/></g>
<g><path style="opacity:1" fill="#0a0a0a" d="M 19.5,30.5 C 21.316,32.1184 22.6493,34.1184 23.5,36.5C 22.391,36.4431 21.391,36.1098 20.5,35.5C 19.6993,33.9582 19.366,32.2915 19.5,30.5 Z"/></g>
<g><path style="opacity:1" fill="#caa07b" d="M 44.5,27.5 C 44.8333,27.5 45.1667,27.5 45.5,27.5C 46.4345,28.5676 46.7678,29.901 46.5,31.5C 45.4489,32.2223 44.7822,33.2223 44.5,34.5C 43.1283,33.4884 41.795,32.4884 40.5,31.5C 42.4812,30.8946 42.8146,29.8946 41.5,28.5C 43.0174,28.5106 44.1841,29.1772 45,30.5C 45.4696,29.4232 45.3029,28.4232 44.5,27.5 Z"/></g>
<g><path style="opacity:1" fill="#df293e" d="M 37.5,31.5 C 38.5,31.5 39.5,31.5 40.5,31.5C 41.795,32.4884 43.1283,33.4884 44.5,34.5C 46.3885,35.604 48.0552,36.9373 49.5,38.5C 49.5,39.8333 49.5,41.1667 49.5,42.5C 45.6988,38.5031 41.6988,34.8364 37.5,31.5 Z"/></g>
<g><path style="opacity:1" fill="#ece8e6" d="M 46.5,31.5 C 49.2788,31.2786 51.9455,31.612 54.5,32.5C 55.8333,35.1667 55.8333,37.8333 54.5,40.5C 54.5,39.8333 54.1667,39.5 53.5,39.5C 52.3346,37.8906 51.0012,37.5573 49.5,38.5C 48.0552,36.9373 46.3885,35.604 44.5,34.5C 44.7822,33.2223 45.4489,32.2223 46.5,31.5 Z"/></g>
<g><path style="opacity:1" fill="#ca9b64" d="M 53.5,39.5 C 53.6347,40.9806 53.3014,42.6473 52.5,44.5C 51.2905,44.0679 50.2905,43.4013 49.5,42.5C 49.5,41.1667 49.5,39.8333 49.5,38.5C 51.0012,37.5573 52.3346,37.8906 53.5,39.5 Z"/></g>
<g><path style="opacity:1" fill="#5d3c2f" d="M 53.5,46.5 C 54.5,46.8333 55.1667,47.5 55.5,48.5C 47.315,53.273 40.9816,51.273 36.5,42.5C 36.5,42.1667 36.5,41.8333 36.5,41.5C 36.4346,41.0618 36.6012,40.7284 37,40.5C 40.4396,43.7812 43.9396,45.1145 47.5,44.5C 49.323,45.7472 51.323,46.4139 53.5,46.5 Z"/></g>
<g><path style="opacity:1" fill="#623e33" d="M 35.5,31.5 C 36.1667,31.5 36.8333,31.5 37.5,31.5C 41.6988,34.8364 45.6988,38.5031 49.5,42.5C 50.2905,43.4013 51.2905,44.0679 52.5,44.5C 52.8333,45.1667 53.1667,45.8333 53.5,46.5C 51.323,46.4139 49.323,45.7472 47.5,44.5C 43.9396,45.1145 40.4396,43.7812 37,40.5C 36.6012,40.7284 36.4346,41.0618 36.5,41.5C 35.6618,41.1583 35.3284,40.4916 35.5,39.5C 34.2857,36.796 34.2857,34.1293 35.5,31.5 Z"/></g>
<g><path style="opacity:1" fill="#cf9d68" d="M 35.5,31.5 C 34.2857,34.1293 34.2857,36.796 35.5,39.5C 33.305,41.4244 30.9717,43.0911 28.5,44.5C 28.1667,44.5 27.8333,44.5 27.5,44.5C 26.209,44.2627 25.209,44.596 24.5,45.5C 22.901,45.7678 21.5676,45.4345 20.5,44.5C 22.1376,43.2954 22.4709,41.9621 21.5,40.5C 23.3057,39.9759 24.9724,39.3092 26.5,38.5C 28.2624,37.7377 29.2624,36.4044 29.5,34.5C 31.0532,32.615 33.0532,31.615 35.5,31.5 Z"/></g>
<g><path style="opacity:1" fill="#161514" d="M 21.5,40.5 C 22.4709,41.9621 22.1376,43.2954 20.5,44.5C 19.0413,44.5674 17.7079,44.2341 16.5,43.5C 17.4006,41.2729 19.0672,40.2729 21.5,40.5 Z"/></g>
<g><path style="opacity:1" fill="#999490" d="M 35.5,39.5 C 35.3284,40.4916 35.6618,41.1583 36.5,41.5C 36.5,41.8333 36.5,42.1667 36.5,42.5C 35.8333,43.8333 35.1667,45.1667 34.5,46.5C 32.5786,45.6373 30.5786,44.9707 28.5,44.5C 30.9717,43.0911 33.305,41.4244 35.5,39.5 Z"/></g>
<g><path style="opacity:1" fill="#c6233b" d="M 53.5,39.5 C 54.1667,39.5 54.5,39.8333 54.5,40.5C 56.4337,43.1168 56.767,45.7835 55.5,48.5C 55.1667,47.5 54.5,46.8333 53.5,46.5C 53.1667,45.8333 52.8333,45.1667 52.5,44.5C 53.3014,42.6473 53.6347,40.9806 53.5,39.5 Z"/></g>
<g><path style="opacity:1" fill="#871522" d="M 11.5,42.5 C 11.8417,41.6618 12.5084,41.3284 13.5,41.5C 14.5,42.1667 15.5,42.8333 16.5,43.5C 17.7079,44.2341 19.0413,44.5674 20.5,44.5C 21.5676,45.4345 22.901,45.7678 24.5,45.5C 24.3713,47.2161 24.038,48.8828 23.5,50.5C 19.228,48.2256 15.228,45.5589 11.5,42.5 Z"/></g>
<g><path style="opacity:1" fill="#aba49c" d="M 27.5,44.5 C 27.5,47.1667 27.5,49.8333 27.5,52.5C 25.847,52.3404 24.5137,51.6737 23.5,50.5C 24.038,48.8828 24.3713,47.2161 24.5,45.5C 25.209,44.596 26.209,44.2627 27.5,44.5 Z"/></g>
<g><path style="opacity:1" fill="#462e23" d="M 11.5,42.5 C 15.228,45.5589 19.228,48.2256 23.5,50.5C 24.5137,51.6737 25.847,52.3404 27.5,52.5C 29.8333,53.1667 32.1667,53.8333 34.5,54.5C 34.1667,55.1667 33.8333,55.8333 33.5,56.5C 31.5,56.5 29.5,56.5 27.5,56.5C 19.3762,55.0441 14.0429,50.3774 11.5,42.5 Z"/></g>
<g><path style="opacity:1" fill="#b51f2d" d="M 27.5,44.5 C 27.8333,44.5 28.1667,44.5 28.5,44.5C 30.5786,44.9707 32.5786,45.6373 34.5,46.5C 35.7671,49.272 35.7671,51.9387 34.5,54.5C 32.1667,53.8333 29.8333,53.1667 27.5,52.5C 27.5,49.8333 27.5,47.1667 27.5,44.5 Z"/></g>
</svg>
